<?xml version="1.0" encoding="UTF-8"?>
<svg version="1.1" xmlns="http://www.w3.org/2000/svg" width="1920" height="1080">
<path d="M0 0 C633.6 0 1267.2 0 1920 0 C1920 356.4 1920 712.8 1920 1080 C1286.4 1080 652.8 1080 0 1080 C0 723.6 0 367.2 0 0 Z " fill="#FEFEFE" transform="translate(0,0)"/>
<path d="M0 0 C5.51757479 -0.02467609 11.03511761 -0.04284856 16.55273438 -0.05493164 C18.43066975 -0.05996763 20.3086012 -0.06679671 22.18652344 -0.07543945 C24.88217132 -0.08753713 27.57776747 -0.09323557 30.2734375 -0.09765625 C31.11619232 -0.10281754 31.95894714 -0.10797882 32.82723999 -0.11329651 C38.77225659 -0.11387171 38.77225659 -0.11387171 41 1 C40.67 2.32 40.34 3.64 40 5 C38.94039062 5.12117188 37.88078125 5.24234375 36.7890625 5.3671875 C35.40098676 5.53600752 34.01296881 5.70530308 32.625 5.875 C31.92632813 5.95363281 31.22765625 6.03226562 30.5078125 6.11328125 C26.30927841 6.55220445 26.30927841 6.55220445 23 9 C22.14710632 12.8507551 21.87228512 16.54970281 21.85955811 20.48478699 C21.85384796 21.5488829 21.84813782 22.61297882 21.84225464 23.70932007 C21.84113678 24.86122833 21.84001892 26.0131366 21.83886719 27.19995117 C21.83390228 28.42495834 21.82893738 29.64996552 21.82382202 30.91209412 C21.81175319 34.25895688 21.80426705 37.60575752 21.79981136 40.95263457 C21.79687324 43.04421934 21.7927673 45.13579872 21.78830719 47.22738075 C21.7746561 53.77395513 21.76497491 60.32051709 21.7611053 66.86710471 C21.75661492 74.42131068 21.73901192 81.97533659 21.7101047 89.52948779 C21.68851471 95.37419703 21.67840264 101.21885547 21.67706418 107.06360418 C21.67601523 110.55297843 21.67008722 114.04218286 21.65224457 117.53151512 C21.63275803 121.41714741 21.63704206 125.30255232 21.64355469 129.18823242 C21.62973251 130.92520386 21.62973251 130.92520386 21.6156311 132.69726562 C21.62120026 133.75290207 21.62676941 134.80853851 21.63250732 135.89616394 C21.63104076 136.81477298 21.6295742 137.73338202 21.6280632 138.67982769 C21.82933313 141.04441885 21.82933313 141.04441885 23.28590775 142.78700733 C26.22282938 144.86534612 29.7058186 144.58107306 33.1875 144.6875 C33.93708984 144.72166016 34.68667969 144.75582031 35.45898438 144.79101562 C37.30546838 144.87334294 39.15270994 144.93835281 41 145 C41.33 146.32 41.66 147.64 42 149 C21.54 149 1.08 149 -20 149 C-20 148.01 -20 147.02 -20 146 C-17.00678678 144.50339339 -13.85275546 144.66714374 -10.5625 144.5 C-5.20570249 144.24401728 -5.20570249 144.24401728 0 143 C0 102.74 0 62.48 0 21 C-7.0994035 42.96867591 -7.0994035 42.96867591 -14 65 C-15.24328406 68.90730095 -16.4919373 72.81233372 -17.75 76.71484375 C-18.44800154 78.88734253 -19.14591554 81.05986943 -19.84375 83.23242188 C-20.92220351 86.58714759 -22.00133707 89.94164968 -23.08203125 93.2956543 C-28.37083539 109.68682306 -28.37083539 109.68682306 -33.22119141 126.21118164 C-34.30199323 130.08140082 -35.48108844 133.91741279 -36.6875 137.75 C-36.89955078 138.43320312 -37.11160156 139.11640625 -37.33007812 139.8203125 C-38.87301587 144.74603175 -38.87301587 144.74603175 -40 147 C-43 146 -43 146 -43.98722839 144.09242249 C-44.27656754 143.25118332 -44.56590668 142.40994415 -44.86401367 141.54321289 C-45.20185379 140.58184921 -45.53969391 139.62048553 -45.88777161 138.62998962 C-46.24836166 137.56744461 -46.60895172 136.5048996 -46.98046875 135.41015625 C-47.78528233 133.10680701 -48.59047566 130.80359042 -49.39599609 128.50048828 C-49.81991638 127.27597961 -50.24383667 126.05147095 -50.68060303 124.78985596 C-52.668278 119.06136537 -54.72755654 113.35839288 -56.78015518 107.65293503 C-57.98293006 104.3079456 -59.18162311 100.96149369 -60.38085938 97.61523438 C-60.86938295 96.25284766 -61.35790835 94.89046159 -61.84643555 93.52807617 C-62.81946836 90.8139247 -63.79141169 88.09938672 -64.76245117 85.38452148 C-71.98840911 65.18479498 -79.41234528 45.06670977 -87 25 C-87.02336861 39.64701271 -87.04099866 54.29402296 -87.05181217 68.94105053 C-87.0569667 75.74203808 -87.06399336 82.54301403 -87.07543945 89.34399414 C-87.08647754 95.90567817 -87.09228237 102.46735331 -87.09487724 109.02904701 C-87.0967268 111.53410342 -87.10033843 114.03915915 -87.10573006 116.54421043 C-87.11297486 120.04926358 -87.11398948 123.55426676 -87.11352539 127.05932617 C-87.11712067 128.09798325 -87.12071594 129.13664032 -87.12442017 130.20677185 C-87.1230455 131.16444458 -87.12167084 132.12211731 -87.12025452 133.10881042 C-87.12163721 134.35184826 -87.12163721 134.35184826 -87.12304783 135.61999798 C-86.99020382 138.18947858 -86.67945335 140.51671211 -86 143 C-83.16730334 144.41634833 -80.52533562 144.3463005 -77.375 144.5625 C-76.18648437 144.64628906 -74.99796875 144.73007812 -73.7734375 144.81640625 C-72.85820313 144.87699219 -71.94296875 144.93757812 -71 145 C-71 146.32 -71 147.64 -71 149 C-84.86 149 -98.72 149 -113 149 C-112.67 148.01 -112.34 147.02 -112 146 C-103.585 145.01 -103.585 145.01 -95 144 C-94.97687388 126.56311289 -94.9590171 109.12623188 -94.94818783 91.68933296 C-94.94302648 83.59350183 -94.93598684 75.49768038 -94.92456055 67.40185547 C-94.9146088 60.34743458 -94.9081454 53.2930207 -94.90591151 46.23859298 C-94.90460524 42.50162442 -94.90152465 38.76467592 -94.89426994 35.02771378 C-94.88624634 30.86107738 -94.88600918 26.69447612 -94.88647461 22.52783203 C-94.88287933 21.28202362 -94.87928406 20.03621521 -94.87557983 18.75265503 C-94.8769545 17.62240906 -94.87832916 16.49216309 -94.87974548 15.32766724 C-94.87882369 14.34134874 -94.8779019 13.35503025 -94.87695217 12.33882332 C-94.84501319 9.97697009 -94.84501319 9.97697009 -96 8 C-101.1584415 5.75144858 -106.45577718 5.41636456 -112 5 C-112 3.68 -112 2.36 -112 1 C-99.46 1 -86.92 1 -74 1 C-64.98493625 24.24365834 -56.370218 47.61204889 -47.92776966 71.06773663 C-47.25591889 72.93415917 -46.5835665 74.80040113 -45.91120911 76.66664124 C-45.08476317 78.96157707 -44.25961063 81.25697932 -43.43608093 83.55296326 C-40.72794212 91.07645972 -37.89738125 98.54740023 -35 106 C-33.24831214 103.3724682 -32.55455247 101.88992313 -31.76245117 98.94824219 C-31.53801834 98.13325256 -31.31358551 97.31826294 -31.08235168 96.47857666 C-30.84248032 95.59361511 -30.60260895 94.70865356 -30.35546875 93.796875 C-27.02235351 81.82987866 -23.20176653 70.04577874 -19.3125 58.25 C-18.60910962 56.1069393 -17.90598774 53.96379045 -17.203125 51.82055664 C-11.52643324 34.52791174 -5.79198879 17.25436453 0 0 Z " fill="#030303" transform="translate(659,370)"/>
<path d="M0 0 C20.79 0 41.58 0 63 0 C63 1.32 63 2.64 63 4 C61.55367187 4.07347656 61.55367187 4.07347656 60.078125 4.1484375 C58.81484375 4.22320312 57.5515625 4.29796875 56.25 4.375 C54.37054687 4.47941406 54.37054687 4.47941406 52.453125 4.5859375 C49.39001879 4.95323304 47.58025734 5.39711286 45 7 C44.78373286 11.34950445 45.21981789 14.20160344 47.1328125 18.10546875 C47.83760742 19.56170654 47.83760742 19.56170654 48.55664062 21.04736328 C49.07419922 22.0836084 49.59175781 23.11985352 50.125 24.1875 C50.65544922 25.27015137 51.18589844 26.35280273 51.73242188 27.46826172 C62.06804603 48.57852324 62.06804603 48.57852324 73.40625 69.1484375 C75 72 75 72 75 74 C75.66 74 76.32 74 77 74 C77.24363281 73.175 77.48726562 72.35 77.73828125 71.5 C79.2068826 67.42610896 81.12445593 63.79755686 83.1875 60 C87.50007554 51.90635709 91.73317079 43.77406103 95.87588501 35.59228516 C96.53253352 34.299326 97.1928899 33.00824203 97.85726929 31.71923828 C102.19624877 23.29325641 105.45688908 15.13730808 108 6 C102.39 5.34 96.78 4.68 91 4 C91 2.68 91 1.36 91 0 C96.62336914 -0.02473065 102.24670657 -0.04287459 107.87011719 -0.05493164 C109.78288321 -0.05995841 111.6956454 -0.06678077 113.60839844 -0.07543945 C116.3587336 -0.08757748 119.10901793 -0.0932449 121.859375 -0.09765625 C122.71368103 -0.10281754 123.56798706 -0.10797882 124.44818115 -0.11329651 C125.64897308 -0.11340981 125.64897308 -0.11340981 126.87402344 -0.11352539 C127.57573669 -0.115746 128.27744995 -0.11796661 129.00042725 -0.12025452 C131.10595088 0.0063719 132.97407628 0.42679979 135 1 C134.67 1.99 134.34 2.98 134 4 C133.11957031 4.09796875 132.23914063 4.1959375 131.33203125 4.296875 C130.17058594 4.44640625 129.00914062 4.5959375 127.8125 4.75 C126.08966797 4.95882813 126.08966797 4.95882813 124.33203125 5.171875 C119.31284277 6.41931692 116.93402851 8.5556057 114.1484375 12.86328125 C113.56320312 14.00152344 112.97796875 15.13976562 112.375 16.3125 C111.87141968 17.2859436 111.87141968 17.2859436 111.35766602 18.27905273 C107.95548342 24.9288781 104.76585927 31.68582599 101.57983398 38.44116211 C98.81491499 44.28348194 95.96789677 50.07473071 93.03125 55.83203125 C92.69219131 56.49926712 92.35313263 57.16650299 92.00379944 57.85395813 C89.26805622 63.23703745 89.26805622 63.23703745 87.93307495 65.81350708 C86.97629934 67.66025674 86.03222438 69.51306056 85.08984375 71.3671875 C84.54191162 72.43050293 83.99397949 73.49381836 83.42944336 74.58935547 C79.97091379 82.8413893 79.71290716 90.71805691 79.76953125 99.5859375 C79.76998947 100.76467438 79.77044769 101.94341125 79.7709198 103.15786743 C79.77392612 105.63373835 79.78176345 108.10960766 79.79418945 110.58544922 C79.81254279 114.38385672 79.81469822 118.18202135 79.81445312 121.98046875 C79.81936536 124.39062712 79.82519239 126.80078383 79.83203125 129.2109375 C79.83314407 130.34840424 79.8342569 131.48587097 79.83540344 132.6578064 C79.84178329 133.70965118 79.84816315 134.76149597 79.85473633 135.84521484 C79.85854813 136.77071136 79.86235992 137.69620789 79.86628723 138.64974976 C79.90586746 141.15398725 79.90586746 141.15398725 81 144 C86.94 144.66 92.88 145.32 99 146 C99 146.99 99 147.98 99 149 C78.87 149 58.74 149 38 149 C38 148.01 38 147.02 38 146 C43.01575418 144.36442799 47.5897503 143.69175764 52.86328125 143.44140625 C55.38678828 143.18099323 55.38678828 143.18099323 57 140 C64.95104985 106.26439557 55.91405922 77.56421788 40.375 48.1875 C39.98077347 47.44159229 39.58654694 46.69568459 39.18037415 45.92717361 C33.99624108 36.16231774 28.5886347 26.53862821 23 17 C22.43017395 16.00569977 21.8603479 15.01139954 21.27325439 13.98696899 C20.74947205 13.08546112 20.2256897 12.18395325 19.68603516 11.25512695 C19.23636383 10.475793 18.7866925 9.69645905 18.32339478 8.89350891 C16.97611087 6.72102367 16.97611087 6.72102367 14 5 C10.80193335 4.5396236 10.80193335 4.5396236 7.3125 4.375 C6.13300781 4.30023438 4.95351563 4.22546875 3.73828125 4.1484375 C2.83464844 4.09945313 1.93101562 4.05046875 1 4 C0.67 2.68 0.34 1.36 0 0 Z " fill="#060606" transform="translate(756,370)"/>
<path d="M0 0 C0.33 0 0.66 0 1 0 C1.04487549 0.62865967 1.08975098 1.25731934 1.13598633 1.9050293 C1.9906882 13.54196023 2.93377557 24.71071916 6 36 C9.63 36.99 13.26 37.98 17 39 C15.0415766 32.6895246 12.93838517 29.3896757 8 25 C8.33 24.34 8.66 23.68 9 23 C10.32 23.99 11.64 24.98 13 26 C12.34 23.03 11.68 20.06 11 17 C14.0659708 20.0659708 14.6055222 23.95334063 15.8046875 28.0546875 C17.07740766 31.19073652 18.46420045 32.80372173 21 35 C20.01 35 19.02 35 18 35 C18.33 36.65 18.66 38.3 19 40 C23.12973628 39.43260132 23.12973628 39.43260132 27 38 C27.33 38.99 27.66 39.98 28 41 C27 42 27 42 23.4375 42.0625 C22.303125 42.041875 21.16875 42.02125 20 42 C20.495 43.051875 20.99 44.10375 21.5 45.1875 C22.82779788 48.25452609 23.30715006 50.62134936 23 54 C23.66 54 24.32 54 25 54 C25.33 53.01 25.66 52.02 26 51 C26 52.65 26 54.3 26 56 C26.92683594 56.45890625 27.85367188 56.9178125 28.80859375 57.390625 C30.01859774 58.00969681 31.22821327 58.62952828 32.4375 59.25 C33.04916016 59.55035156 33.66082031 59.85070312 34.29101562 60.16015625 C38.7699025 62.486208 38.7699025 62.486208 39.97265625 65.171875 C39.98167969 65.77515625 39.99070312 66.3784375 40 67 C38.13775139 68.86224861 35.57468825 68.12354714 33.10546875 68.1328125 C30.9604094 67.99750263 29.06404304 67.58442567 27 67 C27.28875 67.86882812 27.5775 68.73765625 27.875 69.6328125 C28.24625 70.78523438 28.6175 71.93765625 29 73.125 C29.37125 74.26195312 29.7425 75.39890625 30.125 76.5703125 C30.96911949 79.87895941 31.16509276 82.60528016 31 86 C27.49541946 85.43866026 26.08409143 84.36612392 23.875 81.625 C23.37742187 81.01914062 22.87984375 80.41328125 22.3671875 79.7890625 C21.18228762 78.23853637 20.08246429 76.62369643 19 75 C16.44816596 73.79549696 16.44816596 73.79549696 14 73 C15.485 72.01 15.485 72.01 17 71 C17.33 70.34 17.66 69.68 18 69 C18.66 70.65 19.32 72.3 20 74 C21.65 74 23.3 74 25 74 C22.56030983 69.21097855 21.02470674 66.37277818 16 64 C15.67 64.99 15.34 65.98 15 67 C14.76410156 66.39414062 14.52820313 65.78828125 14.28515625 65.1640625 C12.68995216 62.47791337 11.21171751 61.75542926 8.4375 60.375 C4.09722222 58.19444444 4.09722222 58.19444444 3 56 C5.31 56 7.62 56 10 56 C10 55.34 10 54.68 10 54 C9.47921875 53.78601563 8.9584375 53.57203125 8.421875 53.3515625 C5.00000911 51.44194057 2.20431398 48.93324112 -0.75 46.375 C-1.35199219 45.859375 -1.95398438 45.34375 -2.57421875 44.8125 C-4.05260866 43.54530865 -5.52673171 42.27314225 -7 41 C-3.27792613 41 -1.53604411 42.17964568 1.6875 44 C2.68136719 44.556875 3.67523437 45.11375 4.69921875 45.6875 C5.45847656 46.120625 6.21773437 46.55375 7 47 C6.81870185 43.56206661 6.81870185 43.56206661 6 40 C4.06402968 38.48705712 4.06402968 38.48705712 2 38 C2.99 37.505 2.99 37.505 4 37 C3.01 33.04 2.02 29.08 1 25 C0.34 25 -0.32 25 -1 25 C-1.33 23.68 -1.66 22.36 -2 21 C-2.33 21.66 -2.66 22.32 -3 23 C-6.875 21.25 -6.875 21.25 -8 19 C-7.01 19.33 -6.02 19.66 -5 20 C-4.67 19.34 -4.34 18.68 -4 18 C-3.01 18.33 -2.02 18.66 -1 19 C-1.01160156 17.71222656 -1.02320313 16.42445313 -1.03515625 15.09765625 C-1.0445327 13.41927228 -1.05363305 11.74088674 -1.0625 10.0625 C-1.07087891 9.21236328 -1.07925781 8.36222656 -1.08789062 7.48632812 C-1.09111328 6.67744141 -1.09433594 5.86855469 -1.09765625 5.03515625 C-1.10289307 4.2862915 -1.10812988 3.53742676 -1.11352539 2.76586914 C-1 1 -1 1 0 0 Z " fill="#636363" transform="translate(852,437)"/>
<path d="M0 0 C0.9796875 -0.00257813 1.959375 -0.00515625 2.96875 -0.0078125 C5.5 0.125 5.5 0.125 7.5 1.125 C7.17 2.445 6.84 3.765 6.5 5.125 C7.49 5.125 8.48 5.125 9.5 5.125 C8.92655063 7.99224686 8.6385485 8.9864515 6.5 11.125 C7.06589844 11.47433594 7.63179687 11.82367188 8.21484375 12.18359375 C8.94832031 12.63863281 9.68179688 13.09367187 10.4375 13.5625 C11.16839844 14.01496094 11.89929688 14.46742188 12.65234375 14.93359375 C14.5 16.125 14.5 16.125 15.5 17.125 C15.86015175 22.52727629 15.85910997 25.64618671 12.5 30.125 C12.17 29.465 11.84 28.805 11.5 28.125 C11.9640625 26.9803125 11.9640625 26.9803125 12.4375 25.8125 C13.57716502 22.92981788 13.98315255 21.18496618 13.5 18.125 C11.10918389 15.35165331 9.600403 15.13556874 5.9375 14.75 C2.54973386 14.81648291 2.54973386 14.81648291 0.5625 16.625 C0.0365625 17.3675 0.0365625 17.3675 -0.5 18.125 C1.15 18.785 2.8 19.445 4.5 20.125 C3.05746343 23.49091866 1.16735273 25.63547079 -1.5 28.125 C-2.16 27.795 -2.82 27.465 -3.5 27.125 C-1.85 25.475 -0.2 23.825 1.5 22.125 C-5.05525419 21.66498216 -7.97291798 22.65702697 -13.5 26.125 C-14.49 26.125 -15.48 26.125 -16.5 26.125 C-17.04220269 34.61953154 -17.04220269 34.61953154 -13.5 42.125 C-9.28789331 43.52903556 -5.79022807 43.04433459 -1.5 42.125 C-1.5 42.785 -1.5 43.445 -1.5 44.125 C-5.22983966 45.31854869 -8.60823039 45.53465996 -12.5 45.125 C-16.69416801 41.95607306 -18.12120804 39.09958422 -19.5 34.125 C-20.51406266 25.1517246 -19.48101786 16.28498688 -15.5 8.125 C-10.97163287 2.77329339 -7.01743285 -0.01846693 0 0 Z " fill="#CCCCCC" transform="translate(703.5,458.875)"/>
<path d="M0 0 C0.33 0 0.66 0 1 0 C1.04487549 0.62865967 1.08975098 1.25731934 1.13598633 1.9050293 C1.9906882 13.54196023 2.93377557 24.71071916 6 36 C9.63 36.99 13.26 37.98 17 39 C15.0415766 32.6895246 12.93838517 29.3896757 8 25 C8.33 24.34 8.66 23.68 9 23 C10.32 23.99 11.64 24.98 13 26 C12.34 23.03 11.68 20.06 11 17 C14.0659708 20.0659708 14.6055222 23.95334063 15.8046875 28.0546875 C17.07740766 31.19073652 18.46420045 32.80372173 21 35 C20.01 35 19.02 35 18 35 C18.33 36.65 18.66 38.3 19 40 C23.12973628 39.43260132 23.12973628 39.43260132 27 38 C27.33 38.99 27.66 39.98 28 41 C27 42 27 42 23.4375 42.0625 C22.303125 42.041875 21.16875 42.02125 20 42 C20.53625 43.093125 21.0725 44.18625 21.625 45.3125 C22.305625 47.1378125 22.305625 47.1378125 23 49 C22.34 49.99 21.68 50.98 21 52 C20.505 49.525 20.505 49.525 20 47 C19.13375 46.731875 18.2675 46.46375 17.375 46.1875 C14.08208036 45.02888013 11.08872125 43.61790161 8 42 C8.49457011 45.69890914 8.49457011 45.69890914 10 49 C12.24964962 50.32257284 14.43022914 51.16450733 16.90625 51.98046875 C19.47568139 53.23162844 20.00170012 54.37946282 21 57 C17.535 57.495 17.535 57.495 14 58 C14 59.32 14 60.64 14 62 C14.66 62.33 15.32 62.66 16 63 C15.01 63.99 15.01 63.99 14 65 C13.59136719 64.55914062 13.18273437 64.11828125 12.76171875 63.6640625 C10.8947448 61.90057935 9.01750742 60.68434867 6.8125 59.375 C5.52556107 58.60979307 4.24942675 57.82503714 3 57 C3 56.67 3 56.34 3 56 C5.31 56 7.62 56 10 56 C10 55.34 10 54.68 10 54 C9.47921875 53.78601563 8.9584375 53.57203125 8.421875 53.3515625 C5.00000911 51.44194057 2.20431398 48.93324112 -0.75 46.375 C-1.35199219 45.859375 -1.95398438 45.34375 -2.57421875 44.8125 C-4.05260866 43.54530865 -5.52673171 42.27314225 -7 41 C-3.27792613 41 -1.53604411 42.17964568 1.6875 44 C2.68136719 44.556875 3.67523437 45.11375 4.69921875 45.6875 C5.45847656 46.120625 6.21773437 46.55375 7 47 C6.81870185 43.56206661 6.81870185 43.56206661 6 40 C4.06402968 38.48705712 4.06402968 38.48705712 2 38 C2.99 37.505 2.99 37.505 4 37 C3.01 33.04 2.02 29.08 1 25 C0.34 25 -0.32 25 -1 25 C-1.33 23.68 -1.66 22.36 -2 21 C-2.33 21.66 -2.66 22.32 -3 23 C-6.875 21.25 -6.875 21.25 -8 19 C-7.01 19.33 -6.02 19.66 -5 20 C-4.67 19.34 -4.34 18.68 -4 18 C-3.01 18.33 -2.02 18.66 -1 19 C-1.01160156 17.71222656 -1.02320313 16.42445313 -1.03515625 15.09765625 C-1.0445327 13.41927228 -1.05363305 11.74088674 -1.0625 10.0625 C-1.07087891 9.21236328 -1.07925781 8.36222656 -1.08789062 7.48632812 C-1.09111328 6.67744141 -1.09433594 5.86855469 -1.09765625 5.03515625 C-1.10289307 4.2862915 -1.10812988 3.53742676 -1.11352539 2.76586914 C-1 1 -1 1 0 0 Z " fill="#616161" transform="translate(852,437)"/>
<path d="M0 0 C3.33600367 2.05838525 4.8262176 3.7393264 7 7 C7.48692434 11.30116499 7.28241006 13.48387126 5.1875 17.3125 C2.99854341 20.00178952 1.42821517 21.76998782 -2.0859375 22.3359375 C-6.07084491 22.40393933 -8.41430563 22.33646272 -11.9375 20.3125 C-15.1938779 16.66140963 -16.05062582 14.41752283 -15.875 9.5 C-14.92080906 5.68323625 -13.71834365 3.8007177 -11 1 C-7.5402669 -0.72986655 -3.78289201 -0.48431489 0 0 Z " fill="#050505" transform="translate(735,498)"/>
<path d="M0 0 C4.101939 0.01760489 4.95892934 0.14333151 8.3125 2.8125 C8.951875 3.658125 9.59125 4.50375 10.25 5.375 C10.58 5.705 10.91 6.035 11.25 6.375 C11.60522005 11.70330074 11.71093188 15.04883515 8.25 19.375 C5.70647704 22.21200638 3.49381351 22.64911509 -0.1875 22.875 C-3.97346813 22.76896794 -4.63553352 22.46800402 -7.75 19.9375 C-8.41 19.091875 -9.07 18.24625 -9.75 17.375 C-10.08 17.045 -10.41 16.715 -10.75 16.375 C-11.18836682 12.99331307 -11.23685233 9.75155645 -10.75 6.375 C-8.3125 3.3125 -8.3125 3.3125 -5.75 1.375 C-4.10843264 -0.26656736 -2.25784199 0.08684008 0 0 Z " fill="#050505" transform="translate(915.75,497.625)"/>
<path d="M0 0 C4.1395883 0.66529098 5.86882666 1.27353332 8.5 4.5625 C8.5 11.37839534 6.58326319 17.15873478 2.0625 22.375 C-0.11910638 24.23734691 -1.79982928 25.63140665 -4.5 26.5625 C-5.16 26.2325 -5.82 25.9025 -6.5 25.5625 C-6.5 24.5725 -6.5 23.5825 -6.5 22.5625 C-8.81 22.5625 -11.12 22.5625 -13.5 22.5625 C-14.1875 20.8125 -14.1875 20.8125 -14.5 18.5625 C-13.04882837 15.82139802 -12.05223174 14.7659538 -9.125 13.6875 C-5.41755963 12.09859699 -3.92770163 9.75319358 -1.5 6.5625 C-3.81 6.2325 -6.12 5.9025 -8.5 5.5625 C-5.75194049 2.23151878 -4.33784855 0.69715423 0 0 Z " fill="#E5E5E5" transform="translate(709.5,472.4375)"/>
<path d="M0 0 C1.23556641 0.01740234 1.23556641 0.01740234 2.49609375 0.03515625 C3.32238281 0.04417969 4.14867187 0.05320312 5 0.0625 C5.63808594 0.07410156 6.27617188 0.08570313 6.93359375 0.09765625 C5.98242241 1.27016935 5.02242366 2.4355264 4.05859375 3.59765625 C3.25808594 4.5721875 3.25808594 4.5721875 2.44140625 5.56640625 C1.94382812 6.07171875 1.44625 6.57703125 0.93359375 7.09765625 C0.27359375 7.09765625 -0.38640625 7.09765625 -1.06640625 7.09765625 C-2.52703475 9.74504541 -3.06640625 10.99213959 -3.06640625 14.09765625 C-0.09640625 14.09765625 2.87359375 14.09765625 5.93359375 14.09765625 C5.60359375 15.08765625 5.27359375 16.07765625 4.93359375 17.09765625 C5.59359375 17.42765625 6.25359375 17.75765625 6.93359375 18.09765625 C4.59893381 21.59964615 3.04879137 21.95907341 -0.97265625 22.796875 C-4.09495862 23.24541471 -6.09879053 23.24423505 -9.06640625 22.09765625 C-14.23517283 16.11276863 -13.47697111 9.68170153 -13.06640625 2.09765625 C-12.73640625 3.08765625 -12.40640625 4.07765625 -12.06640625 5.09765625 C-10.58600654 4.45465436 -9.10711843 3.80817126 -7.62890625 3.16015625 C-6.80519531 2.80050781 -5.98148438 2.44085938 -5.1328125 2.0703125 C-0.81640625 0.03858253 -0.81640625 0.03858253 0 0 Z " fill="#F7F7F7" transform="translate(699.06640625,479.90234375)"/>
<path d="M0 0 C0.13277344 0.67546875 0.26554688 1.3509375 0.40234375 2.046875 C0.57894531 2.93890625 0.75554688 3.8309375 0.9375 4.75 C1.11152344 5.63171875 1.28554688 6.5134375 1.46484375 7.421875 C1.92368488 9.63235053 2.43336074 11.81512068 3 14 C3.66 14 4.32 14 5 14 C8.44419134 24.37357631 8.44419134 24.37357631 8 30 C4.49541946 29.43866026 3.08409143 28.36612392 0.875 25.625 C0.37742187 25.01914062 -0.12015625 24.41328125 -0.6328125 23.7890625 C-1.81771238 22.23853637 -2.91753571 20.62369643 -4 19 C-6.55183404 17.79549696 -6.55183404 17.79549696 -9 17 C-8.01 16.34 -7.02 15.68 -6 15 C-5.67 14.34 -5.34 13.68 -5 13 C-4.34 14.65 -3.68 16.3 -3 18 C-1.35 18 0.3 18 2 18 C-0.43969017 13.21097855 -1.97529326 10.37277818 -7 8 C-7.33 8.99 -7.66 9.98 -8 11 C-8.144375 10.2575 -8.28875 9.515 -8.4375 8.75 C-8.78078418 7.07172178 -9.16651881 5.40053228 -9.625 3.75 C-9.74875 3.1725 -9.8725 2.595 -10 2 C-7.75858472 -0.24141528 -3.06492894 0 0 0 Z " fill="#727272" transform="translate(875,493)"/>
<path d="M0 0 C0.66 0 1.32 0 2 0 C1.67 1.32 1.34 2.64 1 4 C1.99 4 2.98 4 4 4 C3.42655063 6.86724686 3.1385485 7.8614515 1 10 C1.56589844 10.34933594 2.13179687 10.69867188 2.71484375 11.05859375 C3.44832031 11.51363281 4.18179688 11.96867187 4.9375 12.4375 C5.66839844 12.88996094 6.39929688 13.34242188 7.15234375 13.80859375 C9 15 9 15 10 16 C10.36015175 21.40227629 10.35910997 24.52118671 7 29 C6.67 28.34 6.34 27.68 6 27 C6.4640625 25.8553125 6.4640625 25.8553125 6.9375 24.6875 C8.07716502 21.80481788 8.48315255 20.05996618 8 17 C5.60918389 14.22665331 4.100403 14.01056874 0.4375 13.625 C-2.95026614 13.69148291 -2.95026614 13.69148291 -4.9375 15.5 C-5.288125 15.995 -5.63875 16.49 -6 17 C-6.66 16.67 -7.32 16.34 -8 16 C-7.67 15.34 -7.34 14.68 -7 14 C-8.4835001 14.42257276 -9.96176424 14.86356322 -11.4375 15.3125 C-12.26121094 15.55613281 -13.08492187 15.79976563 -13.93359375 16.05078125 C-14.61550781 16.36402344 -15.29742188 16.67726563 -16 17 C-16.33 17.99 -16.66 18.98 -17 20 C-17.66 19.67 -18.32 19.34 -19 19 C-17.52503615 15.25523067 -15.57855572 13.74623429 -12.25 11.5625 C-4.70660794 6.97824069 -4.70660794 6.97824069 0 0 Z " fill="#686868" transform="translate(709,460)"/>
<path d="M0 0 C5.47084435 1.98939794 10.40509769 4.27918435 14.375 8.5625 C17.46117303 11.4282321 20.00044876 12.18835144 24.01171875 13.2265625 C26 14 26 14 28 17 C25.69 17.33 23.38 17.66 21 18 C21 19.32 21 20.64 21 22 C21.66 22.33 22.32 22.66 23 23 C22.34 23.66 21.68 24.32 21 25 C20.59136719 24.55914062 20.18273437 24.11828125 19.76171875 23.6640625 C17.8947448 21.90057935 16.01750742 20.68434867 13.8125 19.375 C12.52556107 18.60979307 11.24942675 17.82503714 10 17 C10 16.67 10 16.34 10 16 C12.31 16 14.62 16 17 16 C17 15.34 17 14.68 17 14 C16.47921875 13.78472656 15.9584375 13.56945312 15.421875 13.34765625 C12.01005377 11.44914282 9.20511789 8.97370557 6.25 6.4375 C5.64800781 5.93025391 5.04601562 5.42300781 4.42578125 4.90039062 C2.92859272 3.62557363 1.46140412 2.31568608 0 1 C0 0.67 0 0.34 0 0 Z " fill="#D4D4D4" transform="translate(845,477)"/>
<path d="M0 0 C0.66 0.33 1.32 0.66 2 1 C1.01 2.32 0.02 3.64 -1 5 C1.31 5.33 3.62 5.66 6 6 C4.55746343 9.36591866 2.66735273 11.51047079 0 14 C-0.66 13.67 -1.32 13.34 -2 13 C-0.35 11.35 1.3 9.7 3 8 C-3.55525419 7.53998216 -6.47291798 8.53202697 -12 12 C-12.99 12 -13.98 12 -15 12 C-14.1875 9.5625 -14.1875 9.5625 -13 7 C-12.01 6.67 -11.02 6.34 -10 6 C-9.5875 5.54625 -9.175 5.0925 -8.75 4.625 C-6.15697551 2.21719155 -3.29570138 1.19843686 0 0 Z " fill="#6C6C6C" transform="translate(702,473)"/>
<path d="M0 0 C2.13383795 0.87457302 4.25689844 1.77547579 6.375 2.6875 C7.55835938 3.18636719 8.74171875 3.68523437 9.9609375 4.19921875 C13 6 13 6 14.4765625 8.51953125 C15 11 15 11 14 14 C2.85560538 9.50134529 2.85560538 9.50134529 0.7578125 5.8203125 C0.25 3.625 0.25 3.625 0 0 Z " fill="#F5F5F5" transform="translate(859,478)"/>
<path d="M0 0 C0.33 0.99 0.66 1.98 1 3 C0 4 0 4 -3.5625 4.0625 C-4.696875 4.041875 -5.83125 4.02125 -7 4 C-6.46375 5.093125 -5.9275 6.18625 -5.375 7.3125 C-4.92125 8.529375 -4.4675 9.74625 -4 11 C-4.99 12.485 -4.99 12.485 -6 14 C-6.33 12.35 -6.66 10.7 -7 9 C-7.86625 8.731875 -8.7325 8.46375 -9.625 8.1875 C-12.94989221 7.01763052 -15.95223638 5.7719556 -19 4 C-19.33 3.01 -19.66 2.02 -20 1 C-19.03578125 1.09539062 -18.0715625 1.19078125 -17.078125 1.2890625 C-15.81484375 1.39992188 -14.5515625 1.51078125 -13.25 1.625 C-11.99703125 1.74101562 -10.7440625 1.85703125 -9.453125 1.9765625 C-5.6947368 2.00207192 -3.45344489 0 0 0 Z " fill="#5B5B5B" transform="translate(879,475)"/>
<path d="M0 0 C4.04686708 3.31107306 4.81176937 6.18355462 5.75 11.25 C5.99234375 12.51328125 6.2346875 13.7765625 6.484375 15.078125 C6.73960937 16.52445312 6.73960937 16.52445312 7 18 C5.68103535 17.07161713 4.37001311 16.13194268 3.0625 15.1875 C2.33160156 14.66542969 1.60070312 14.14335937 0.84765625 13.60546875 C-1 12 -1 12 -2 9 C-2.1875 5.4375 -2.1875 5.4375 -2 2 C-1.34 1.34 -0.68 0.68 0 0 Z " fill="#C6C6C6" transform="translate(859,447)"/>
<path d="M0 0 C5.23518706 1.43967644 9.63026009 3.81696611 14 7 C14 7.33 14 7.66 14 8 C10.04 8 6.08 8 2 8 C0 4 0 4 0 0 Z " fill="#F9F9F9" transform="translate(877,495)"/>
<path d="M0 0 C0.99 0.33 1.98 0.66 3 1 C3 1.66 3 2.32 3 3 C5.31 3 7.62 3 10 3 C10 3.33 10 3.66 10 4 C8.35 4.33 6.7 4.66 5 5 C5 6.32 5 7.64 5 9 C5.66 9.33 6.32 9.66 7 10 C6.34 10.66 5.68 11.32 5 12 C4.59136719 11.55914062 4.18273437 11.11828125 3.76171875 10.6640625 C1.8947448 8.90057935 0.01750742 7.68434867 -2.1875 6.375 C-3.47443893 5.60979307 -4.75057325 4.82503714 -6 4 C-6 3.67 -6 3.34 -6 3 C-3.69 3 -1.38 3 1 3 C0.67 2.01 0.34 1.02 0 0 Z " fill="#505050" transform="translate(861,490)"/>
<path d="M0 0 C0.66 0 1.32 0 2 0 C0.59799333 4.4609303 -1.59783406 6.84677303 -5 10 C-5.515625 10.53625 -6.03125 11.0725 -6.5625 11.625 C-8.9307829 13.89031408 -10.94363742 15.7585457 -14.1875 16.5 C-15.0846875 16.7475 -15.0846875 16.7475 -16 17 C-16.33 17.99 -16.66 18.98 -17 20 C-17.66 19.67 -18.32 19.34 -19 19 C-17.52503615 15.25523067 -15.57855572 13.74623429 -12.25 11.5625 C-4.70660794 6.97824069 -4.70660794 6.97824069 0 0 Z " fill="#474747" transform="translate(709,460)"/>
<path d="M0 0 C3.45462112 0.25589786 4.27381547 1.28626163 6.75 3.875 C9 7 9 7 9 10 C7.35 10 5.7 10 4 10 C3.71125 9.360625 3.4225 8.72125 3.125 8.0625 C2.17176549 5.84793921 2.17176549 5.84793921 0 5 C0 3.35 0 1.7 0 0 Z " fill="#EFEFEF" transform="translate(868,501)"/>
<path d="M0 0 C0.66 2.97 1.32 5.94 2 9 C-0.9375 8.1875 -0.9375 8.1875 -4 7 C-4.33 6.01 -4.66 5.02 -5 4 C-5.66 4 -6.32 4 -7 4 C-7 3.34 -7 2.68 -7 2 C-7.66 1.67 -8.32 1.34 -9 1 C-2.25 0 -2.25 0 0 0 Z " fill="#F3F3F3" transform="translate(875,493)"/>
<path d="M0 0 C0.6328125 2.28515625 0.6328125 2.28515625 1.125 5.0625 C1.29257812 5.98160156 1.46015625 6.90070312 1.6328125 7.84765625 C1.75398437 8.55792969 1.87515625 9.26820313 2 10 C-4.57142857 5 -4.57142857 5 -6 0 C-2.25 -1.125 -2.25 -1.125 0 0 Z " fill="#F5F5F5" transform="translate(880,512)"/>
<path d="M0 0 C0.66 0 1.32 0 2 0 C1.75 2.875 1.75 2.875 1 6 C-1.54714915 7.86790938 -2.80869 8 -6 8 C-5.1875 5.5625 -5.1875 5.5625 -4 3 C-3.01 2.67 -2.02 2.34 -1 2 C-0.67 1.34 -0.34 0.68 0 0 Z " fill="#B7B7B7" transform="translate(693,477)"/>
<path d="M0 0 C6.64615385 2.46153846 6.64615385 2.46153846 8.4375 5.1875 C8.623125 5.785625 8.80875 6.38375 9 7 C6.69 7 4.38 7 2 7 C1.34 4.69 0.68 2.38 0 0 Z " fill="#D8D8D8" transform="translate(869,470)"/>
<path d="M0 0 C4.30764815 1.56641751 8.06171464 3.68336156 12 6 C11.67 6.99 11.34 7.98 11 9 C8.03469503 7.64199529 5.70868729 6.07571737 3.25 3.9375 C2.63640625 3.41027344 2.0228125 2.88304687 1.390625 2.33984375 C0.93171875 1.89769531 0.4728125 1.45554687 0 1 C0 0.67 0 0.34 0 0 Z " fill="#515151" transform="translate(845,477)"/>
<path d="M0 0 C3.63 0.66 7.26 1.32 11 2 C11.33 3.32 11.66 4.64 12 6 C7.76570244 4.68938409 3.92592596 3.05643741 0 1 C0 0.67 0 0.34 0 0 Z " fill="#F4F4F4" transform="translate(859,476)"/>
<path d="M0 0 C2 3 2 3 2 5 C-1.375 4.6875 -1.375 4.6875 -5 4 C-5.66 3.01 -6.32 2.02 -7 1 C-3.535 0.505 -3.535 0.505 0 0 Z " fill="#A6A6A6" transform="translate(862,492)"/>
<path d="M0 0 C0.66 0 1.32 0 2 0 C0.60846256 4.42761914 -1.52071486 6.9556255 -5 10 C-5.66 10 -6.32 10 -7 10 C-7 9.34 -7 8.68 -7 8 C-6.030625 7.195625 -5.06125 6.39125 -4.0625 5.5625 C-0.80624673 3.29315623 -0.80624673 3.29315623 0 0 Z " fill="#2C2C2C" transform="translate(709,460)"/>
<path d="M0 0 C0.66 0 1.32 0 2 0 C2.33 0.99 2.66 1.98 3 3 C1.41727399 4.58272601 -0.38034003 4.34735747 -2.5625 4.5625 C-3.80193359 4.68818359 -3.80193359 4.68818359 -5.06640625 4.81640625 C-6.02353516 4.90728516 -6.02353516 4.90728516 -7 5 C-7 4.34 -7 3.68 -7 3 C-4.69 2.34 -2.38 1.68 0 1 C0 0.67 0 0.34 0 0 Z " fill="#7A7A7A" transform="translate(877,475)"/>
<path d="M0 0 C0.66 0.33 1.32 0.66 2 1 C-0.25 3.5625 -0.25 3.5625 -3 6 C-5.3125 5.8125 -5.3125 5.8125 -7 5 C-2.25 1.125 -2.25 1.125 0 0 Z " fill="#EEEEEE" transform="translate(709,466)"/>
<path d="M0 0 C2.4375 0.8125 2.4375 0.8125 5 2 C5.33 2.99 5.66 3.98 6 5 C6.66 5.33 7.32 5.66 8 6 C7.01 6.33 6.02 6.66 5 7 C0 1.125 0 1.125 0 0 Z " fill="#9E9E9E" transform="translate(855,484)"/>
<path d="M0 0 C0.66 0.33 1.32 0.66 2 1 C-2.75 5 -2.75 5 -5 5 C-5 4.01 -5 3.02 -5 2 C-2.625 0.9375 -2.625 0.9375 0 0 Z " fill="#E9E9E9" transform="translate(702,473)"/>
</svg>
