<?xml version="1.0" encoding="UTF-8"?>
<svg version="1.1" xmlns="http://www.w3.org/2000/svg" width="1920" height="1080" viewBox="0 0 1920 1080">
<!-- WITTE ACHTERGROND VERWIJDERD -->

<path d="M0 0 C5.51757479 -0.02467609 11.03511761 -0.04284856 16.55273438 -0.05493164 C18.43066975 -0.05996763 20.3086012 -0.06679671 22.18652344 -0.07543945 C24.88217132 -0.08753713 27.57776747 -0.09323557 30.2734375 -0.09765625 C31.11619232 -0.10281754 31.95894714 -0.10797882 32.82723999 -0.11329651 C38.77225659 -0.11387171 38.77225659 -0.11387171 41 1 C40.67 2.32 40.34 3.64 40 5 C38.94039062 5.12117188 37.88078125 5.24234375 36.7890625 5.3671875 C35.40098676 5.53600752 34.01296881 5.70530308 32.625 5.875 C31.92632813 5.95363281 31.22765625 6.03226562 30.5078125 6.11328125 C26.30927841 6.55220445 26.30927841 6.55220445 23 9 C22.14710632 12.8507551 21.87228512 16.54970281 21.85955811 20.48478699 C21.85384796 21.5488829 21.84813782 22.61297882 21.84225464 23.70932007 C21.84113678 24.86122833 21.84001892 26.0131366 21.83886719 27.19995117 C21.83390228 28.42495834 21.82893738 29.64996552 21.82382202 30.91209412 C21.81175319 34.25895688 21.80426705 37.60575752 21.79981136 40.95263457 C21.79687324 43.04421934 21.7927673 45.13579872 21.78830719 47.22738075 C21.7746561 53.77395513 21.76497491 60.32051709 21.7611053 66.86710471 C21.75661492 74.42131068 21.73901192 81.97533659 21.7101047 89.52948779 C21.68851471 95.37419703 21.67840264 101.21885547 21.67706418 107.06360418 C21.67601523 110.55297843 21.67008722 114.04218286 21.65224457 117.53151512 C21.63275803 121.41714741 21.63704206 125.30255232 21.64355469 129.18823242 C21.62973251 130.92520386 21.62973251 130.92520386 21.6156311 132.69726562 C21.62120026 133.75290207 21.62676941 134.80853851 21.63250732 135.89616394 C21.63104076 136.81477298 21.6295742 137.73338202 21.6280632 138.67982769 C21.82933313 141.04441885 21.82933313 141.04441885 23.28590775 142.78700733 C26.22282938 144.86534612 29.7058186 144.58107306 33.1875 144.6875 C33.93708984 144.72166016 34.68667969 144.75582031 35.45898438 144.79101562 C37.30546838 144.87334294 39.15270994 144.93835281 41 145 C41.33 146.32 41.66 147.64 42 149 C21.54 149 1.08 149 -20 149 C-20 148.01 -20 147.02 -20 146 C-17.00678678 144.50339339 -13.85275546 144.66714374 -10.5625 144.5 C-5.20570249 144.24401728 -5.20570249 144.24401728 0 143 C0 102.74 0 62.48 0 21 C-7.0994035 42.96867591 -7.0994035 42.96867591 -14 65 C-15.24328406 68.90730095 -16.4919373 72.81233372 -17.75 76.71484375 C-18.44800154 78.88734253 -19.14591554 81.05986943 -19.84375 83.23242188 C-20.92220351 86.58714759 -22.00133707 89.94164968 -23.08203125 93.2956543 C-28.37083539 109.68682306 -28.37083539 109.68682306 -33.22119141 126.21118164 C-34.30199323 130.08140082 -35.48108844 133.91741279 -36.6875 137.75 C-36.89955078 138.43320312 -37.11160156 139.11640625 -37.33007812 139.8203125 C-38.87301587 144.74603175 -38.87301587 144.74603175 -40 147 C-43 146 -43 146 -43.98722839 144.09242249 C-44.27656754 143.25118332 -44.56590668 142.40994415 -44.86401367 141.54321289 C-45.20185379 140.58184921 -45.53969391 139.62048553 -45.88777161 138.62998962 C-46.24836166 137.56744461 -46.60895172 136.5048996 -46.98046875 135.41015625 C-47.78528233 133.10680701 -48.59047566 130.80359042 -49.39599609 128.50048828 C-49.81991638 127.27597961 -50.24383667 126.05147095 -50.68060303 124.78985596 C-52.668278 119.06136537 -54.72755654 113.35839288 -56.78015518 107.65293503 C-57.98293006 104.3079456 -59.18162311 100.96149369 -60.38085938 97.61523438 C-60.86938295 96.25284766 -61.35790835 94.89046159 -61.84643555 93.52807617 C-62.81946836 90.8139247 -63.79141169 88.09938672 -64.76245117 85.38452148 C-71.98840911 65.18479498 -79.41234528 45.06670977 -87 25 C-87.02336861 39.64701271 -87.04099866 54.29402296 -87.05181217 68.94105053 C-87.0569667 75.74203808 -87.06399336 82.54301403 -87.07543945 89.34399414 C-87.08647754 95.90567817 -87.09228237 102.46735331 -87.09487724 109.02904701 C-87.0967268 111.53410342 -87.10033843 114.03915915 -87.10573006 116.54421043 C-87.11297486 120.04926358 -87.11398948 123.55426676 -87.11352539 127.05932617 C-87.11712067 128.09798325 -87.12071594 129.13664032 -87.12442017 130.20677185 C-87.1230455 131.16444458 -87.12167084 132.12211731 -87.12025452 133.10881042 C-87.12163721 134.35184826 -87.12163721 134.35184826 -87.12304783 135.61999798 C-86.99020382 138.18947858 -86.67945335 140.51671211 -86 143 C-83.16730334 144.41634833 -80.52533562 144.3463005 -77.375 144.5625 C-76.18648437 144.64628906 -74.99796875 144.73007812 -73.7734375 144.81640625 C-72.85820313 144.87699219 -71.94296875 144.93757812 -71 145 C-71 146.32 -71 147.64 -71 149 C-84.86 149 -98.72 149 -113 149 C-112.67 148.01 -112.34 147.02 -112 146 C-103.585 145.01 -103.585 145.01 -95 144 C-94.97687388 126.56311289 -94.9590171 109.12623188 -94.94818783 91.68933296 C-94.94302648 83.59350183 -94.93598684 75.49768038 -94.92456055 67.40185547 C-94.9146088 60.34743458 -94.9081454 53.2930207 -94.90591151 46.23859298 C-94.90460524 42.50162442 -94.90152465 38.76467592 -94.89426994 35.02771378 C-94.88624634 30.86107738 -94.88600918 26.69447612 -94.88647461 22.52783203 C-94.88287933 21.28202362 -94.87928406 20.03621521 -94.87557983 18.75265503 C-94.8769545 17.62240906 -94.87832916 16.49216309 -94.87974548 15.32766724 C-94.87882369 14.34134874 -94.8779019 13.35503025 -94.87695217 12.33882332 C-94.84501319 9.97697009 -94.84501319 9.97697009 -96 8 C-101.1584415 5.75144858 -106.45577718 5.41636456 -112 5 C-112 3.68 -112 2.36 -112 1 C-99.46 1 -86.92 1 -74 1 C-64.98493625 24.24365834 -56.370218 47.61204889 -47.92776966 71.06773663 C-47.25591889 72.93415917 -46.5835665 74.80040113 -45.91120911 76.66664124 C-45.08476317 78.96157707 -44.25961063 81.25697932 -43.43608093 83.55296326 C-40.72794212 91.07645972 -37.89738125 98.54740023 -35 106 C-33.24831214 103.3724682 -32.55455247 101.88992313 -31.76245117 98.94824219 C-31.53801834 98.13325256 -31.31358551 97.31826294 -31.08235168 96.47857666 C-30.84248032 95.59361511 -30.60260895 94.70865356 -30.35546875 93.796875 C-27.02235351 81.82987866 -23.20176653 70.04577874 -19.3125 58.25 C-18.60910962 56.1069393 -17.90598774 53.96379045 -17.203125 51.82055664 C-11.52643324 34.52791174 -5.79198879 17.25436453 0 0 Z " fill="#030303" transform="translate(659,370)"/>
<path d="M0 0 C20.79 0 41.58 0 63 0 C63 1.32 63 2.64 63 4 C61.55367187 4.07347656 61.55367187 4.07347656 60.078125 4.1484375 C58.81484375 4.22320312 57.5515625 4.29796875 56.25 4.375 C54.37054687 4.47941406 54.37054687 4.47941406 52.453125 4.5859375 C49.39001879 4.95323304 47.58025734 5.39711286 45 7 C44.78373286 11.34950445 45.21981789 14.20160344 47.1328125 18.10546875 C47.83760742 19.56170654 47.83760742 19.56170654 48.55664062 21.04736328 C49.07419922 22.0836084 49.59175781 23.11985352 50.125 24.1875 C50.65544922 25.27015137 51.18589844 26.35280273 51.73242188 27.46826172 C62.06804603 48.57852324 62.06804603 48.57852324 73.40625 69.1484375 C75 72 75 72 75 74 C75.66 74 76.32 74 77 74 C77.24363281 73.175 77.48726562 72.35 77.73828125 71.5 C79.2068826 67.42610896 81.12445593 63.79755686 83.1875 60 C87.50007554 51.90635709 91.73317079 43.77406103 95.87588501 35.59228516 C96.53253352 34.299326 97.1928899 33.00824203 97.85726929 31.71923828 C102.19624877 23.29325641 105.45688908 15.13730808 108 6 C102.39 5.34 96.78 4.68 91 4 C91 2.68 91 1.36 91 0 C96.62336914 -0.02473065 102.24670657 -0.04287459 107.87011719 -0.05493164 C109.78288321 -0.05995841 111.6956454 -0.06678077 113.60839844 -0.07543945 C116.3587336 -0.08757748 119.10901793 -0.0932449 121.859375 -0.09765625 C122.71368103 -0.10281754 123.56798706 -0.10797882 124.44818115 -0.11329651 C125.64897308 -0.11340981 125.64897308 -0.11340981 126.87402344 -0.11352539 C127.57573669 -0.115746 128.27744995 -0.11796661 129.00042725 -0.12025452 C131.10595088 0.0063719 132.97407628 0.42679979 135 1 C134.67 1.99 134.34 2.98 134 4 C133.11957031 4.09796875 132.23914063 4.1959375 131.33203125 4.296875 C130.17058594 4.44640625 129.00914062 4.5959375 127.8125 4.75 C126.08966797 4.95882813 126.08966797 4.95882813 124.33203125 5.171875 C119.31284277 6.41931692 116.93402851 8.5556057 114.1484375 12.86328125 C113.56320312 14.00152344 112.97796875 15.13976562 112.375 16.3125 C111.87141968 17.2859436 111.87141968 17.2859436 111.35766602 18.27905273 C107.95548342 24.9288781 104.76585927 31.68582599 101.57983398 38.44116211 C98.81491499 44.28348194 95.96789677 50.07473071 93.03125 55.83203125 C92.69219131 56.49926712 92.35313263 57.16650299 92.00379944 57.85395813 C89.26805622 63.23703745 89.26805622 63.23703745 87.93307495 65.81350708 C86.97629934 67.66025674 86.03222438 69.51306056 85.08984375 71.3671875 C84.54191162 72.43050293 83.99397949 73.49381836 83.42944336 74.58935547 C79.97091379 82.8413893 79.71290716 90.71805691 79.76953125 99.5859375 C79.76998947 100.76467438 79.77044769 101.94341125 79.7709198 103.15786743 C79.77392612 105.63373835 79.78176345 108.10960766 79.79418945 110.58544922 C79.81254279 114.38385672 79.81469822 118.18202135 79.81445312 121.98046875 C79.81936536 124.39062712 79.82519239 126.80078383 79.83203125 129.2109375 C79.83314407 130.34840424 79.8342569 131.48587097 79.83540344 132.6578064 C79.84178329 133.70965118 79.84816315 134.76149597 79.85473633 135.84521484 C79.85854813 136.77071136 79.86235992 137.69620789 79.86628723 138.64974976 C79.90586746 141.15398725 79.90586746 141.15398725 81 144 C86.94 144.66 92.88 145.32 99 146 C99 146.99 99 147.98 99 149 C78.87 149 58.74 149 38 149 C38 148.01 38 147.02 38 146 C43.01575418 144.36442799 47.5897503 143.69175764 52.86328125 143.44140625 C55.38678828 143.18099323 55.38678828 143.18099323 57 140 C64.95104985 106.26439557 55.91405922 77.56421788 40.375 48.1875 C39.98077347 47.44159229 39.58654694 46.69568459 39.18037415 45.92717361 C33.99624108 36.16231774 28.5886347 26.53862821 23 17 C22.43017395 16.00569977 21.8603479 15.01139954 21.27325439 13.98696899 C20.74947205 13.08546112 20.2256897 12.18395325 19.68603516 11.25512695 C19.23636383 10.475793 18.7866925 9.69645905 18.32339478 8.89350891 C16.97611087 6.72102367 16.97611087 6.72102367 14 5 C10.80193335 4.5396236 10.80193335 4.5396236 7.3125 4.375 C6.13300781 4.30023438 4.95351563 4.22546875 3.73828125 4.1484375 C2.83464844 4.09945313 1.93101562 4.05046875 1 4 C0.67 2.68 0.34 1.36 0 0 Z " fill="#060606" transform="translate(756,370)"/>
<!-- ... rest van je paden ongewijzigd ... -->
</svg>
